<?xml version="1.0" encoding="UTF-8"?>
<svg width="1451px" height="847px" viewBox="0 0 1451 847" version="1.1" xmlns="http://www.w3.org/2000/svg" xmlns:xlink="http://www.w3.org/1999/xlink">
    <!-- Generator: Sketch 47.1 (45422) - http://www.bohemiancoding.com/sketch -->
    <title>Group 8 Copy</title>
    <desc>Created with Sketch.</desc>
    <defs></defs>
    <g id="HP" stroke="none" stroke-width="1" fill="none" fill-rule="evenodd">
        <g id="Group-8-Copy" transform="translate(0.000000, -3.000000)" stroke-width="2">
            <polyline id="Path-7" stroke="#2DD7C8" stroke-linecap="round" stroke-linejoin="round" transform="translate(931.654276, 78.570672) rotate(25.000000) translate(-931.654276, -78.570672) " points="929.32568 73.9937952 933.982872 78.5706721 929.32568 83.147549"></polyline>
            <polyline id="Path-7-Copy-5" stroke="#6DCDB1" stroke-linecap="round" stroke-linejoin="round" points="92 511 96.6571918 515.576877 92 520.153754"></polyline>
            <polyline id="Path-7-Copy-3" stroke="#5E6770" stroke-linecap="round" stroke-linejoin="round" transform="translate(1277.328596, 639.576877) scale(-1, 1) translate(-1277.328596, -639.576877) " points="1275 635 1279.65719 639.576877 1275 644.153754"></polyline>
            <g id="Group" transform="translate(179.656854, 627.656854) rotate(45.000000) translate(-179.656854, -627.656854) translate(175.656854, 623.656854)" stroke="#2796DB" stroke-linecap="round" stroke-linejoin="round">
                <path d="M8.25943805,3.83007201 L0,3.83007231" id="Path-7-Copy" transform="translate(4.129719, 3.830072) rotate(-315.000000) translate(-4.129719, -3.830072) "></path>
                <path d="M8.25943805,3.83007201 L0,3.83007231" id="Path-7-Copy-2" transform="translate(4.129719, 3.830072) scale(-1, 1) rotate(-315.000000) translate(-4.129719, -3.830072) "></path>
            </g>
            <g id="Group-Copy" transform="translate(978.656854, 245.656854) rotate(45.000000) translate(-978.656854, -245.656854) translate(974.656854, 241.656854)" stroke="#4A8AC9" stroke-linecap="round" stroke-linejoin="round">
                <path d="M8.25943805,3.83007201 L0,3.83007231" id="Path-7-Copy" transform="translate(4.129719, 3.830072) rotate(-315.000000) translate(-4.129719, -3.830072) "></path>
                <path d="M8.25943805,3.83007201 L0,3.83007231" id="Path-7-Copy-2" transform="translate(4.129719, 3.830072) scale(-1, 1) rotate(-315.000000) translate(-4.129719, -3.830072) "></path>
            </g>
            <ellipse id="Oval" stroke="#EAA641" cx="1355.10453" cy="797.105481" rx="3.10453172" ry="3.10548087"></ellipse>
            <ellipse id="Oval" stroke="#00A3AD" cx="1140.87734" cy="225.275078" rx="3.10453172" ry="3.10548087"></ellipse>
            <ellipse id="Oval-Copy-3" stroke="#EBB430" cx="1110.10453" cy="91.1054809" rx="3.10453172" ry="3.10548087"></ellipse>
            <ellipse id="Oval-Copy" stroke="#EBB430" cx="384.104532" cy="115.105481" rx="3.10453172" ry="3.10548087"></ellipse>
            <g id="Group-Copy-2" transform="translate(5.656854, 410.656854) rotate(45.000000) translate(-5.656854, -410.656854) translate(1.656854, 406.656854)" stroke="#2DD7C8" stroke-linecap="round" stroke-linejoin="round">
                <path d="M8.25943805,3.83007201 L-1.8189894e-12,3.83007231" id="Path-7-Copy" transform="translate(4.129719, 3.830072) rotate(-315.000000) translate(-4.129719, -3.830072) "></path>
                <path d="M8.25943805,3.83007201 L-1.8189894e-12,3.83007231" id="Path-7-Copy-2" transform="translate(4.129719, 3.830072) scale(-1, 1) rotate(-315.000000) translate(-4.129719, -3.830072) "></path>
            </g>
            <path d="M1298.62038,513.148232 L1293.11841,518.590552" id="Path-7-Copy-7" stroke="#B01F63" stroke-linecap="round" stroke-linejoin="round" transform="translate(1295.869392, 515.869392) rotate(-315.000000) translate(-1295.869392, -515.869392) "></path>
            <path d="M12.6203788,654.148232 L7.11840517,659.590552" id="Path-7-Copy-7" stroke="#B54A91" stroke-linecap="round" stroke-linejoin="round" transform="translate(9.869392, 656.869392) rotate(-315.000000) translate(-9.869392, -656.869392) "></path>
            <path d="M415.84034,16.4973973 L412.418346,23.5539567" id="Path-7-Copy-12" stroke="#6DCDB1" stroke-linecap="round" stroke-linejoin="round" transform="translate(414.129343, 20.025677) rotate(-315.000000) translate(-414.129343, -20.025677) "></path>
            <path d="M1398.41572,330.176448 L1394.99373,337.233008" id="Path-7-Copy-9" stroke="#6DCDB1" stroke-linecap="round" stroke-linejoin="round" transform="translate(1396.704728, 333.704728) rotate(-315.000000) translate(-1396.704728, -333.704728) "></path>
            <polyline id="Path-7-Copy-6" stroke="#B54A91" stroke-linecap="round" stroke-linejoin="round" transform="translate(74.328596, 255.576877) scale(-1, 1) translate(-74.328596, -255.576877) " points="72 251 76.6571918 255.576877 72 260.153754"></polyline>
            <polyline id="Path-7-Copy-8" stroke="#B01F63" stroke-linecap="round" stroke-linejoin="round" transform="translate(1284.683883, 125.596525) scale(-1, 1) rotate(45.000000) translate(-1284.683883, -125.596525) " points="1282.35529 121.019648 1287.01248 125.596525 1282.35529 130.173402"></polyline>
            <g id="Group-Copy-3" transform="translate(100.816858, 136.461370) rotate(45.000000) translate(-100.816858, -136.461370) translate(96.316858, 132.461370)" stroke="#2796DB" stroke-linecap="round" stroke-linejoin="round">
                <path d="M8.66502964,3.99302292 L0.405591591,3.99302321" id="Path-7-Copy" transform="translate(4.535311, 3.993023) rotate(-315.000000) translate(-4.535311, -3.993023) "></path>
                <path d="M8.66502964,3.99302292 L0.405591591,3.99302321" id="Path-7-Copy-2" transform="translate(4.535311, 3.993023) scale(-1, 1) rotate(-315.000000) translate(-4.535311, -3.993023) "></path>
            </g>
            <path d="M660.972661,76.9171826 L655.470687,82.3595022" id="Path-7-Copy" stroke="#B01F63" stroke-linecap="round" stroke-linejoin="round" transform="translate(658.221674, 79.638342) rotate(-315.000000) translate(-658.221674, -79.638342) "></path>
            <path d="M408.415725,398.176448 L404.993731,405.233008" id="Path-7-Copy-10" stroke="#6DCDB1" stroke-linecap="round" stroke-linejoin="round" transform="translate(406.704728, 401.704728) rotate(-315.000000) translate(-406.704728, -401.704728) "></path>
            <ellipse id="Oval-Copy-2" stroke="#4A8AC9" cx="939.104532" cy="675.105481" rx="3.10453172" ry="3.10548087"></ellipse>
            <path d="M90.6203788,846.148232 L85.1184052,851.590552" id="Path-7-Copy-7" stroke="#B01F63" stroke-linecap="round" stroke-linejoin="round" transform="translate(87.869392, 848.869392) rotate(-315.000000) translate(-87.869392, -848.869392) "></path>
            <path d="M303.508008,33.4404505 L298.006035,38.8827701" id="Path-7-Copy-11" stroke="#B54A91" stroke-linecap="round" stroke-linejoin="round" transform="translate(300.757021, 36.161610) rotate(-315.000000) translate(-300.757021, -36.161610) "></path>
            <g id="Group-Copy-2" transform="translate(1295.656854, 278.656854) rotate(45.000000) translate(-1295.656854, -278.656854) translate(1291.656854, 274.656854)" stroke="#6DCDB1" stroke-linecap="round" stroke-linejoin="round">
                <path d="M8.25943805,3.83007201 L-1.8189894e-12,3.83007231" id="Path-7-Copy" transform="translate(4.129719, 3.830072) rotate(-315.000000) translate(-4.129719, -3.830072) "></path>
                <path d="M8.25943805,3.83007201 L-1.8189894e-12,3.83007231" id="Path-7-Copy-2" transform="translate(4.129719, 3.830072) scale(-1, 1) rotate(-315.000000) translate(-4.129719, -3.830072) "></path>
            </g>
            <ellipse id="Oval-Copy-2" stroke="#2796DB" cx="1385.10453" cy="596.105481" rx="3.10453172" ry="3.10548087"></ellipse>
            <ellipse id="Oval" stroke="#00A3AD" cx="602.104532" cy="745.105481" rx="3.10453172" ry="3.10548087"></ellipse>
            <path d="M1448.63671,1.49836154 L1443.13474,6.94068114" id="Path-7-Copy-4" stroke="#EF8421" stroke-linecap="round" stroke-linejoin="round" transform="translate(1445.885722, 4.219521) rotate(-315.000000) translate(-1445.885722, -4.219521) "></path>
        </g>
    </g>
</svg>